# xmcd
#
# Track frame offsets:
# 150
# 14050
# 30309
# 32773
# 47600
# 58873
# 71378
# 82251
# 95769
# 111497
# 137473
# 151788
# 169320
# 174954
# 198182
# 217231
# 233002
# 257799
#
# Disc length: 3678 seconds
#
# Revision: 1
# Processed by: cddbd v1.4PL0 Copyright (c) Steve Scherf et al.
# Submitted via: CedeCatalogueitor 2.5 http://usuarios.lycos.es/kakasboy
#
DISCID=fa0e5c12
DTITLE=Varios - The Blues Brothers 2000
DYEAR=1900
DGENRE=
TTITLE0=Born In Chicago
TTITLE1=The Blues Don´t Bother Me
TTITLE2=Harmonica Musings
TTITLE3=Cheaper To Keep Her
TTITLE4=Perry Mason
TTITLE5=Looking For A Fox
TTITLE6=Can´t Turn You Loose
TTITLE7=Respect
TTITLE8=6345789
TTITLE9=Maybe I´m Wrong
TTITLE10=Riders In The Sky
TTITLE11=Jhon The Revelrator
TTITLE12=Let There Be  Drums
TTITLE13=Seasons Of The Wich
TTITLE14=Funky Nassau
TTITLE15=How The Blues Can You Get
TTITLE16=Turn On Your Love Light
TTITLE17=New Orleans
EXTD=
EXTT0=
EXTT1=
EXTT2=
EXTT3=
EXTT4=
EXTT5=
EXTT6=
EXTT7=
EXTT8=
EXTT9=
EXTT10=
EXTT11=
EXTT12=
EXTT13=
EXTT14=
EXTT15=
EXTT16=
EXTT17=
PLAYORDER=
